<svg width="36" height="36" fill="none" xmlns="http://www.w3.org/2000/svg"><path d="M21.445 18a3.445 3.445 0 11-6.89 0 3.445 3.445 0 016.89 0z" fill="#C6C4C2"/><path d="M26.057 11.904a3.202 3.202 0 00-.773-1.188 3.2 3.2 0 00-1.188-.773c-.364-.142-.912-.31-1.92-.356-1.09-.05-1.416-.06-4.176-.06-2.76 0-3.087.01-4.177.06-1.007.046-1.555.214-1.919.356-.449.165-.855.43-1.188.773-.343.333-.608.74-.774 1.188-.141.364-.31.912-.355 1.92-.05 1.09-.06 1.416-.06 4.176 0 2.76.01 3.087.06 4.177.046 1.008.214 1.555.355 1.919.166.45.43.855.774 1.189a3.2 3.2 0 001.188.773c.364.141.912.31 1.92.356 1.09.05 1.416.06 4.176.06 2.76 0 3.087-.01 4.177-.06 1.007-.046 1.555-.215 1.919-.356a3.423 3.423 0 001.961-1.962c.142-.364.31-.911.356-1.919.05-1.09.06-1.417.06-4.177s-.01-3.087-.06-4.177c-.046-1.007-.214-1.555-.356-1.919zM18 23.308a5.308 5.308 0 110-10.616 5.308 5.308 0 010 10.616zm5.517-9.585a1.24 1.24 0 110-2.48 1.24 1.24 0 010 2.48z" fill="#C6C4C2"/><path d="M18 0C8.06 0 0 8.06 0 18s8.06 18 18 18 18-8.06 18-18S27.94 0 18 0zm10.274 22.261c-.05 1.1-.225 1.852-.48 2.51a5.285 5.285 0 01-3.024 3.022c-.657.256-1.408.43-2.508.48-1.103.05-1.455.063-4.262.063-2.807 0-3.159-.012-4.261-.062-1.1-.05-1.852-.225-2.51-.48A5.063 5.063 0 019.4 26.6a5.065 5.065 0 01-1.192-1.83c-.255-.658-.43-1.41-.48-2.51-.051-1.102-.063-1.454-.063-4.261 0-2.807.012-3.16.062-4.261.05-1.1.225-1.852.48-2.51A5.073 5.073 0 019.4 9.398a5.062 5.062 0 011.83-1.192c.658-.256 1.41-.43 2.51-.48 1.102-.05 1.454-.063 4.261-.063 2.807 0 3.16.012 4.261.063 1.1.05 1.852.224 2.51.48a5.07 5.07 0 011.83 1.192 5.057 5.057 0 011.192 1.83c.256.658.43 1.41.48 2.51.051 1.102.063 1.454.063 4.261 0 2.807-.012 3.16-.062 4.261z" fill="#C6C4C2"/></svg>