<svg xmlns="http://www.w3.org/2000/svg" xmlns:xlink="http://www.w3.org/1999/xlink"><symbol id="icon-adventures"><path fill-rule="evenodd" clip-rule="evenodd" d="M35.941 6.484c-.138-.48-.49-.754-.858-1.012-.428-.24-.713-.611-1.183-.811-.223-.278-.784-.441-.966-.607-.09-.082-.09-.03-.215-.1-.425-.244-.802-.56-1.288-.71-.675-.612-1.512-1.071-2.254-1.62a4.968 4.968 0 01-1.18-.708c-.45-.22-.575-.742-1.182-.812-.008-.061-.017-.119-.107-.1-.145.031-.206.143-.43.1-.807.455-1.378 1.131-2.147 1.62-.939.567-1.876 1.134-2.79 1.723-.484.254-.841.625-1.396.81-.13.25-.37.396-.645.506-.23.103-.4.523-.644.304-1.349-.55-2.424-1.36-3.65-2.025-.48-.46-1.294-.602-1.826-1.013-.77-.218-1.288-.675-2.254-.71-.686-.04-.984.29-1.61.305-2.708 1.7-5.998 2.85-8.802 4.457-.146.369-.14.881-.43 1.114-.145 1.588-.073 3.247 0 4.861.202 4.556-.36 9.77.321 14.482.062.786-.129 1.811.109 2.431.028.209.286.203.428.304.266-.132.521.227.536 0 .246.275.194.832.86.71.682.102.822-.306 1.181-.508.332-.227.618-.496.859-.809.685-.434 1.195-1.033 1.824-1.52.604-.51 1.194-1.034 1.827-1.519.322-.234.667-.45.965-.708.436-.129.623-.495 1.074-.609 1.485.692 2.73 1.61 4.187 2.33.69.394 1.387.784 1.931 1.317.42.112.778.28 1.073.505.316-.026.331.23.646.204-.05.316.229.322.535.303.824-.305 1.444-.8 2.041-1.317.679-.439 1.362-.874 1.932-1.417.839-.29 1.222-1.008 2.04-1.316.24-.315.722-.4.966-.71.378-.184.623-.492 1.074-.607 1.45.893 2.458 2.204 3.758 3.24.372.189.495.61.965.71.291.298.497.68.967.81.351.241.36.807.966.81.404.192.492.684 1.181.607.417-.19.545-.514.644-1.013.104-.521-.079-1.094 0-1.62.173-.377.349-.752.43-1.215.572-4.492.182-9.887.43-14.686.193-.681.1-1.6.107-2.43.004-.854.13-1.7 0-2.33zM2.337 28.361c-.055-.053.08-.13.109-.1.054.051-.078.128-.109.1zm31.35-16.71c-.267 4.535.034 9.704-.217 14.38-1.43-.573-2.468-1.518-3.757-2.228-1.4-.57-2.23-1.677-3.757-2.126-.906.157-1.337.764-2.04 1.113-.525.483-1.242.786-1.716 1.317-1.301.765-2.38 1.74-3.544 2.633-.414-.08-.477-.495-.75-.708-.196-.29-.612-.37-.753-.709-.854-.344-1.415-.96-2.362-1.215-.815-.38-1.588-.798-2.47-1.115-.247-.305-.672-.446-.858-.81-.335-.19-.592-.455-1.074-.506-.707-.061-1.138.14-1.502.405-.185.399-.78.411-.966.81-.386.208-.58.601-.967.81-.292.3-.496.68-.966.81-.533.646-1.255 1.112-1.718 1.823-.348.246-.562.618-.86.911-.071.236-.354.273-.427.507-.126.03-.31.574-.323.103.31-.399-.13-.955-.107-1.419-.114-6.238-.312-12.4-.644-18.433-.023-.325.382-.246.537-.404.16-.119.439-.126.537-.305.46-.14.706-.48 1.18-.607.774-.42 1.44-.937 2.254-1.317.703-.485 1.66-.73 2.363-1.215.541-.062.667-.518 1.288-.506.352-.209.675-.445 1.074-.608 1.088.762 2.325 1.385 3.435 2.126.547.395 1.213.68 1.718 1.114.633.28.996.816 1.718 1.013 1.023-.115 1.712-.546 2.36-1.013.676-.444 1.404-.837 2.041-1.316 1.428-.779 2.576-1.825 3.972-2.633a.761.761 0 01.323-.204c.645.506 1.2 1.096 2.039 1.419.72.435 1.43.88 2.255 1.215.388.51.962.847 1.503 1.216.455.414.928.811 1.503 1.114-.102 1.471-.232 2.996-.323 4.557zM27.78 9.117c-.6-.582-.743-1.592-1.502-2.025-.65-.005-.742.516-.86 1.012.067.68.458 1.053.644 1.622a5.409 5.409 0 01-2.147.404c-.277.348-.894.372-.86 1.012.163.188.238.327.54.406.284.075.738-.057 1.071 0 .67-.18 1.305-.39 2.04-.506.51.396.725 1.07 1.074 1.62.4.5.487 1.296 1.61 1.114.126-.186.281-.343.43-.506-.182-1.112-.909-1.71-1.289-2.634.591-.05.958-.312 1.504-.405.503-.131.965-.305.966-.91-.358-1.39-2.192-.269-3.22-.204zm-1.932 2.33c-.437.478-1.613.755-1.181 1.72.512.253.792-.24 1.181-.405.31-.281.782-.41.644-1.113-.225-.058-.306-.25-.644-.202zm-13.956.1c-.669.402-2.211.88-1.504 1.926.687.04.994-.28 1.29-.608.505-.13.715-.54.858-1.013-.174-.14-.264-.359-.644-.304zm2.898 2.431c-.023-.246-.293-.456-.43-.607-.17-.187-.312-.495-.643-.506-.368-.044-.323.303-.538.405.065.547.461.781.646 1.215.347.315.448.858 1.072.912.024-.08.09-.118.216-.101.379-.387.033-1.048-.323-1.318zm7.41.608c-.068.377-.442.464-.324 1.013.12.02.167.112.215.203.514.208.936-.255 1.289-.507.385-.312.819-.576.857-1.215-.642-.757-1.551.182-2.038.506zm-13.636-.405c-.58.467-1.462.646-1.504 1.62.418.467 1.041-.004 1.397-.202.264-.391.74-.585.751-1.216-.191-.09-.273-.283-.644-.202zm12.453 2.025c-.201-.08-.392-.169-.645-.202-.017.118-.169.11-.321.101-.385.337-.913.67-1.289.912-.037.024-.077.167-.107.203-.028.032-.185-.034-.216 0-.04.048-.089.263-.106.303-.054.13-.137.2-.106.405.342.71 1.337.278 1.717-.1.386-.48 1.218-.54 1.18-1.419-.083-.023-.124-.084-.107-.203zM5.022 17.524c.213.102.17.448.537.405.585-.19 1.052-.491 1.073-1.215-.643-.514-1.615.073-1.61.81zm10.844-1.013h-.215c-.124.12-.122.359-.108.608.335.507.951 1.438 1.717.91.134-.598-.235-.722-.43-1.01-.369-.124-.358-.608-.964-.508z" fill="#fff"/></symbol><symbol id="icon-all"><path d="M23.046 0H13.59c-2.28 0-4.135 1.962-4.135 4.375v13.75c0 .345.264.625.59.625.327 0 .591-.28.591-.625V4.375c0-1.722 1.326-3.125 2.955-3.125h7.092a3.23 3.23 0 00-.592 1.875V21.25h-4.136c-.327 0-.591.28-.591.625s.264.625.59.625h4.728c.326 0 .59-.28.59-.625V3.125c0-1.034.796-1.875 1.774-1.875.326 0 .59-.28.59-.625S23.372 0 23.046 0z" fill="#fff"/><path d="M18.318 17.5H7.682c-2.281 0-4.137 1.962-4.137 4.375v3.75c0 1.723-1.326 3.125-2.954 3.125-.326 0-.591.28-.591.625S.265 30 .59 30h11.82c2.28 0 4.136-1.962 4.136-4.375v-5c0-1.034.795-1.875 1.772-1.875.326 0 .591-.28.591-.625s-.265-.625-.59-.625zm-2.954 3.125v5c0 1.722-1.326 3.125-2.955 3.125H3.483a4.484 4.484 0 001.244-3.125v-3.75c0-1.723 1.326-3.125 2.955-3.125h8.274a3.23 3.23 0 00-.592 1.875z" fill="#fff"/><path d="M18.318 17.5h-1.182c-.326 0-.59.28-.59.625s.264.625.59.625h1.182c.977 0 1.773.841 1.773 1.875v1.25c0 .345.265.625.59.625.327 0 .592-.28.592-.625v-1.25c0-1.723-1.326-3.125-2.955-3.125zM23.045 0c-.326 0-.59.28-.59.625s.264.625.59.625c.978 0 1.773.841 1.773 1.875v.625h-4.136c-.326 0-.591.28-.591.625s.265.625.59.625h4.728c.326 0 .59-.28.59-.625v-1.25C26 1.403 24.675 0 23.046 0zm-4.727 3.75H12.41c-.326 0-.59.28-.59.625s.264.625.59.625h5.91c.326 0 .59-.28.59-.625s-.264-.625-.59-.625zm0 3.75H12.41c-.326 0-.59.28-.59.625s.264.625.59.625h5.91c.326 0 .59-.28.59-.625s-.264-.625-.59-.625zm0 3.75H12.41c-.326 0-.59.28-.59.625s.264.625.59.625h5.91c.326 0 .59-.28.59-.625s-.264-.625-.59-.625zm0 3.75H12.41c-.326 0-.59.28-.59.625s.264.625.59.625h5.91c.326 0 .59-.28.59-.625S18.645 15 18.32 15zm-4.727 6.25h-7.09c-.327 0-.592.28-.592.625s.265.625.591.625h7.091c.326 0 .59-.28.59-.625s-.264-.625-.59-.625zm0 3.75h-7.09c-.327 0-.592.28-.592.625s.265.625.591.625h7.091c.326 0 .59-.28.59-.625s-.264-.625-.59-.625z" fill="#fff"/></symbol><symbol id="icon-detective"><path d="M39.023 9.746l-.65-1.406H24.796l-.697 1.238c-.183.326-.638 1.325-.932 3.584-.305-.398-.62-.82-.944-1.254-1.92-2.573-4.095-5.49-7.098-7.266-1.566-.927-3.614-1.714-5.619-2.157A20.593 20.593 0 005.14 2H3.748C1.68 2 0 3.646 0 5.67c0 2.023 1.681 3.67 3.748 3.67h1.49c2.208 0 3.586.583 5.268 2.23 1.396 1.367 2.543 3.227 3.757 5.196 2.02 3.275 4.31 6.987 8.397 9.322C24.88 27.357 27.17 28 29.464 28c1.606 0 3.205-.317 4.751-.943a8.899 8.899 0 004.499-3.993C39.555 21.54 40 19.747 40 17.88c0-5.584-.748-7.637-.977-8.133zm-26.11.848c-.22-.247-.446-.486-.68-.715-2.161-2.117-4.164-2.931-6.995-2.931h-1.49c-.72 0-1.305-.572-1.305-1.278 0-.706.584-1.278 1.305-1.278H5.14c1.688 0 3.142.274 3.828.426 1.937.429 3.72 1.176 4.894 1.871a12.44 12.44 0 011.746 1.267l-2.694 2.638zm20.37 14.252a10.121 10.121 0 01-3.819.762c-1.788 0-3.658-.492-5.573-1.586-4.71-2.69-6.749-7.613-9.48-11.512l2.919-2.857c3.269 3.619 5.565 8.279 8.013 8.279 0-5.608.896-7.2.896-7.2h10.558s.76 1.645.76 7.147c0 2.741-1.221 5.731-4.275 6.967z" fill="#fff"/></symbol><symbol id="icon-horrors"><path d="M29.121 7.09a.879.879 0 00-.879.879v.879h-1.816V4.395A4.4 4.4 0 0022.03 0H7.97a4.4 4.4 0 00-4.395 4.395v4.453H1.758v-.88a.879.879 0 00-1.758 0V15a.879.879 0 001.758 0v-.879h1.816v4.395C3.574 24.848 8.7 30 15 30s11.426-5.152 11.426-11.484V14.12h1.816V15A.879.879 0 0030 15V7.969a.879.879 0 00-.879-.88zM3.574 12.363H1.758v-1.758h1.816v1.758zm21.094 6.153c0 5.363-4.337 9.726-9.668 9.726-5.33 0-9.668-4.363-9.668-9.726v-9.82a2.625 2.625 0 002.637-.522 2.626 2.626 0 003.516 0 2.626 2.626 0 003.515 0 2.626 2.626 0 003.516 0 2.626 2.626 0 003.515 0 2.626 2.626 0 002.637.522v9.82zm0-12.305a.88.88 0 01-1.758 0 .879.879 0 00-1.758 0 .88.88 0 01-1.758 0 .879.879 0 00-1.757 0 .88.88 0 01-1.758 0 .879.879 0 00-1.758 0 .88.88 0 01-1.758 0 .879.879 0 00-1.758 0 .88.88 0 01-1.757 0 .879.879 0 00-1.758 0 .88.88 0 01-1.758 0V4.395a2.64 2.64 0 012.637-2.637H22.03a2.64 2.64 0 012.637 2.637V6.21zm3.574 6.152h-1.816v-1.758h1.816v1.758z" fill="#fff"/><path d="M22.91 11.484a.879.879 0 00-1.758 0 .88.88 0 01-.879.88h-2.787a.873.873 0 01-.622-.258 2.64 2.64 0 00-3.729 0 .873.873 0 01-.62.257H9.726a.88.88 0 01-.88-.879.879.879 0 00-1.757 0c0 .44.108.853.299 1.218a3.52 3.52 0 003.217 4.935 3.52 3.52 0 003.477-4.033c.104-.077.202-.162.296-.255a.88.88 0 011.242 0c.093.093.192.178.296.255a3.52 3.52 0 003.477 4.033 3.52 3.52 0 003.217-4.935c.19-.365.3-.779.3-1.218zM10.605 15.88a1.76 1.76 0 01-1.75-1.907c.273.096.566.143.872.143h2.636c0 .97-.788 1.764-1.758 1.764zm8.79 0a1.76 1.76 0 01-1.758-1.758h2.636c.306 0 .6-.053.872-.149a1.76 1.76 0 01-1.751 1.907z" fill="#fff"/><path d="M16.758 17.637a.879.879 0 00-.88.879v.879h-1.757v-.88a.879.879 0 00-1.758 0v1.758c0 .486.394.88.88.88h3.515a.879.879 0 00.879-.88v-1.757a.879.879 0 00-.88-.88zm1.758 5.332h-7.032a.879.879 0 000 1.758h7.032a.879.879 0 000-1.758z" fill="#fff"/></symbol><symbol id="icon-logo-d"><path d="M67.507 21.523v2.312H56.135V7.25h11.161v2.313H58.75v4.718h7.402v2.173H58.75v5.069h8.757zm6.67 2.546a9.69 9.69 0 01-2.942-.467c-.965-.327-1.798-.787-2.498-1.378l1.027-1.636c.732.53 1.455.935 2.171 1.215a6.284 6.284 0 002.195.397c.763 0 1.362-.148 1.798-.444.452-.296.677-.716.677-1.261 0-.514-.249-.888-.747-1.121-.498-.234-1.276-.49-2.335-.771a29.31 29.31 0 01-1.961-.584c-.545-.187-.989-.405-1.331-.654a2.296 2.296 0 01-.747-.864c-.156-.328-.234-.725-.234-1.192 0-.623.117-1.176.35-1.658a3.622 3.622 0 011.005-1.215c.435-.343.941-.6 1.517-.771a6.526 6.526 0 011.868-.257c.919 0 1.775.14 2.569.42.794.28 1.502.686 2.124 1.215l-1.097 1.542c-1.136-.903-2.343-1.355-3.62-1.355-.653 0-1.206.14-1.657.42-.436.265-.654.694-.654 1.285 0 .25.047.46.14.631.094.171.242.32.444.444.218.124.49.241.817.35.343.094.763.203 1.261.327a25.23 25.23 0 012.125.608c.607.202 1.105.443 1.494.724.39.265.677.584.864.958.187.358.28.794.28 1.308 0 1.168-.443 2.094-1.33 2.78-.872.67-2.063 1.004-3.573 1.004zm6.353-6.354c0-.856.148-1.666.444-2.43a6.1 6.1 0 011.26-2.008 6.016 6.016 0 012.009-1.355c.778-.343 1.65-.514 2.615-.514 1.26 0 2.343.28 3.245.841.919.545 1.604 1.277 2.055 2.196l-2.498.794a3.126 3.126 0 00-1.19-1.191 3.185 3.185 0 00-1.659-.444c-.513 0-.996.101-1.447.304-.436.202-.818.49-1.145.864a3.925 3.925 0 00-.77 1.285 4.694 4.694 0 00-.28 1.658c0 .592.093 1.145.28 1.659.202.498.467.934.794 1.308.342.374.731.67 1.167.888.452.202.927.303 1.425.303.31 0 .622-.039.934-.117.31-.093.591-.218.84-.373.265-.156.49-.335.677-.538.203-.202.35-.42.444-.654l2.522.748c-.405.919-1.082 1.674-2.032 2.266-.95.576-2.07.864-3.362.864-.95 0-1.814-.171-2.592-.514a6.316 6.316 0 01-2.008-1.378 6.723 6.723 0 01-1.284-2.032 6.662 6.662 0 01-.444-2.43zm17.083 6.354a4.814 4.814 0 01-1.658-.28 4.324 4.324 0 01-1.308-.818 4.008 4.008 0 01-.864-1.215 3.778 3.778 0 01-.303-1.518c0-.576.124-1.098.373-1.565.25-.467.6-.872 1.051-1.215a5.324 5.324 0 011.635-.794 7.456 7.456 0 012.101-.28c.576 0 1.144.054 1.705.163.56.094 1.066.226 1.517.397v-.84c0-.904-.257-1.605-.77-2.103-.514-.514-1.253-.77-2.218-.77-.654 0-1.3.124-1.938.373a9.403 9.403 0 00-1.939 1.028l-.793-1.636c1.572-1.058 3.206-1.588 4.903-1.588 1.681 0 2.989.428 3.923 1.285.934.856 1.401 2.087 1.401 3.69V20.8c0 .545.225.825.677.84v2.196a6.573 6.573 0 01-.654.094 5.65 5.65 0 01-.514.023c-.498 0-.887-.124-1.167-.374a1.622 1.622 0 01-.49-.957l-.071-.771a5.516 5.516 0 01-2.031 1.658 5.95 5.95 0 01-2.568.561zm.7-1.892c.623 0 1.206-.11 1.751-.327.561-.234.997-.553 1.308-.958.327-.28.49-.576.49-.888v-1.611a7.71 7.71 0 00-1.401-.398 7.472 7.472 0 00-1.424-.14c-.919 0-1.674.203-2.265.608-.576.389-.864.91-.864 1.565 0 .607.226 1.121.677 1.542.452.404 1.028.607 1.728.607zm16.169 1.892c-.981 0-1.845-.234-2.592-.7a5.234 5.234 0 01-1.775-1.823v7.265h-2.568V11.618h2.265v2.196a5.369 5.369 0 011.798-1.752c.747-.436 1.587-.654 2.521-.654.841 0 1.611.171 2.312.514a5.88 5.88 0 011.821 1.378 6.184 6.184 0 011.191 2.01c.296.762.444 1.564.444 2.405 0 .888-.133 1.721-.397 2.5a6.339 6.339 0 01-1.121 2.009 5.667 5.667 0 01-1.728 1.354 4.786 4.786 0 01-2.171.491zm-.841-2.196a3.07 3.07 0 001.471-.35 3.516 3.516 0 001.144-.935c.327-.389.576-.833.747-1.331a4.692 4.692 0 00.257-1.542c0-.56-.101-1.09-.303-1.588a3.995 3.995 0 00-.794-1.308 3.565 3.565 0 00-2.709-1.215 3.11 3.11 0 00-1.027.187 4.068 4.068 0 00-1.004.514 3.814 3.814 0 00-.817.77c-.234.28-.397.592-.491.935v3.2c.156.374.358.724.607 1.051.249.327.522.608.818.841.311.234.646.42 1.004.56.358.141.723.211 1.097.211zm14.101 2.196c-.949 0-1.813-.163-2.591-.49a6.304 6.304 0 01-2.008-1.379 6.438 6.438 0 01-1.285-2.009 6.679 6.679 0 01-.443-2.43c0-.856.148-1.665.443-2.428a6.371 6.371 0 011.285-2.033 5.84 5.84 0 012.008-1.378c.778-.343 1.65-.514 2.615-.514.949 0 1.805.171 2.568.514a6.05 6.05 0 011.985 1.378c.545.56.957 1.223 1.237 1.986a6.35 6.35 0 01.421 2.896 9.638 9.638 0 01-.047.398h-9.783c.046.545.171 1.035.373 1.471.218.436.491.818.817 1.145a3.85 3.85 0 001.145.724c.435.171.887.257 1.354.257.342 0 .677-.04 1.004-.117.342-.093.654-.218.934-.374a3.55 3.55 0 00.747-.607c.218-.234.389-.49.514-.77l2.195.63c-.421.919-1.121 1.674-2.102 2.266-.965.576-2.094.864-3.386.864zm3.713-7.265a3.963 3.963 0 00-.397-1.425 3.37 3.37 0 00-.794-1.098 3.49 3.49 0 00-1.144-.724 3.733 3.733 0 00-1.378-.257c-.482 0-.941.086-1.377.257a3.56 3.56 0 00-1.121.724 3.384 3.384 0 00-.794 1.098 4.27 4.27 0 00-.373 1.425h7.378zm-75.32 30.391V30.61h7.215c.747 0 1.432.155 2.055.467a5.162 5.162 0 011.635 1.238 5.422 5.422 0 011.05 1.729 5.07 5.07 0 01.397 1.962c0 .56-.078 1.098-.233 1.612a5.654 5.654 0 01-.654 1.424c-.28.436-.623.818-1.027 1.145a4.364 4.364 0 01-1.331.7l3.899 6.308h-2.965l-3.596-5.77h-3.83v5.77h-2.615zm2.615-8.082h4.577c.373 0 .708-.078 1.004-.234a2.56 2.56 0 00.794-.677 3.728 3.728 0 00.7-2.196c0-.42-.078-.818-.233-1.192-.14-.373-.335-.7-.584-.98a2.46 2.46 0 00-.84-.655 2.006 2.006 0 00-.981-.257H58.75v6.19zm17.64 8.316c-.965 0-1.836-.172-2.615-.514a6.111 6.111 0 01-1.96-1.379 6.102 6.102 0 01-1.262-2.008 6.786 6.786 0 01-.443-2.43 6.6 6.6 0 01.443-2.406 6.048 6.048 0 011.261-2.032 6.39 6.39 0 011.985-1.378c.778-.343 1.642-.514 2.592-.514.95 0 1.805.171 2.568.514.778.342 1.44.802 1.985 1.378a5.87 5.87 0 011.284 2.032c.296.763.444 1.565.444 2.406 0 .841-.148 1.65-.444 2.43a5.917 5.917 0 01-1.284 2.008 6.046 6.046 0 01-1.985 1.379c-.763.342-1.619.514-2.568.514zm-3.642-6.308c0 .592.093 1.137.28 1.636.187.498.444.934.77 1.308.328.358.71.646 1.145.864.451.203.934.304 1.448.304.513 0 .988-.101 1.424-.304.451-.218.84-.514 1.167-.888.327-.373.584-.81.77-1.308a4.594 4.594 0 00.281-1.635c0-.576-.093-1.113-.28-1.612a4.154 4.154 0 00-.77-1.331 3.362 3.362 0 00-1.168-.864 3.139 3.139 0 00-1.424-.327c-.499 0-.973.108-1.425.327a3.716 3.716 0 00-1.144.887 4.51 4.51 0 00-.794 1.332 4.555 4.555 0 00-.28 1.611zm17.689 6.308c-.965 0-1.837-.172-2.615-.514a6.111 6.111 0 01-1.962-1.379 6.102 6.102 0 01-1.26-2.008 6.786 6.786 0 01-.444-2.43 6.6 6.6 0 01.443-2.406 6.048 6.048 0 011.261-2.032 6.39 6.39 0 011.985-1.378c.778-.343 1.642-.514 2.592-.514.95 0 1.806.171 2.568.514.779.342 1.44.802 1.985 1.378a5.87 5.87 0 011.284 2.032c.296.763.444 1.565.444 2.406 0 .841-.148 1.65-.444 2.43a5.917 5.917 0 01-1.284 2.008 6.046 6.046 0 01-1.985 1.379c-.762.342-1.619.514-2.568.514zm-3.643-6.308c0 .592.094 1.137.28 1.636.187.498.444.934.771 1.308.327.358.708.646 1.144.864.452.203.934.304 1.448.304a3.33 3.33 0 001.424-.304 3.64 3.64 0 001.168-.888 4.21 4.21 0 00.77-1.308c.187-.498.28-1.043.28-1.635 0-.576-.093-1.113-.28-1.612a4.152 4.152 0 00-.77-1.331 3.362 3.362 0 00-1.168-.864 3.139 3.139 0 00-1.424-.327 3.22 3.22 0 00-1.424.327 3.716 3.716 0 00-1.145.887 4.51 4.51 0 00-.793 1.332 4.555 4.555 0 00-.28 1.611zm30.882 6.074h-2.569v-6.844c0-1.137-.187-1.97-.56-2.5-.374-.53-.919-.794-1.635-.794-.731 0-1.401.272-2.008.817-.591.53-1.019 1.223-1.284 2.08v7.241h-2.569v-6.844c0-1.153-.186-1.986-.56-2.5-.374-.53-.911-.794-1.611-.794-.732 0-1.401.265-2.008.794-.607.53-1.043 1.223-1.308 2.08v7.264h-2.568V34.978h2.335v2.453c.482-.857 1.113-1.51 1.891-1.962.794-.468 1.697-.701 2.709-.701s1.805.264 2.381.794c.592.53.958 1.191 1.098 1.986.513-.904 1.159-1.589 1.938-2.056.778-.483 1.665-.724 2.662-.724.716 0 1.307.14 1.774.42.483.265.864.623 1.144 1.075.281.451.475.98.584 1.588.109.592.164 1.223.164 1.892v7.452z" fill="#fff"/><path fill="#fff" d="M46.048 21.536h21.574v2.288H46.048zm.007 9.026h16.021v2.281H46.055z"/><path fill-rule="evenodd" clip-rule="evenodd" d="M28.906 42.5l-16.617-8.608.287-.54 16.617 8.609-.287.54zm9.877-8.435V16.153h.618v17.912h-.618zm-.309-11.135L29.13 28.4l-.267-.562 9.295-5.431.316.524zm-.936-7.367l-9.181-5.232-11.532 6.696 8.981 5.15 11.732-6.614zm-9.184-5.938L15.601 17.03l10.202 5.85 12.98-7.317-.536-.3-9.893-5.638z" fill="#fff"/><path d="M12.387 33.927l-.264-.153-.154-11.655-7.73-4.495m8.148 16.303l10.198-5.797m-10.198 5.797l10.198 5.298m.513-11.387V39.41l-.513-.186m.513-11.387L4.24 17.03v-3.062l.464-.305L25.88 1.703 46.729 14.12v7.388h.672l.024-7.797L25.881 1 4.378 13.143l-.756.498v25.141L26.345 51l2.318-1.253v.012l.455-.258.24-.13v-.006L47.347 38.85l.026-7.494h-.643v7.14L29.282 48.707v-6.17l12.751-7.082-13.17-7.616m-5.765 0l-.513.292m6.278-.292l-.122.07V49.01l-2.396 1.295L4.24 38.421V17.624m24.623 10.214l.267.561 9.344-5.468-.316-.524-9.295 5.43zM4.24 17.624v-.228M22.585 28.13v11.095m15.662-23.962l-9.893-5.638-12.753 7.405 10.202 5.85 12.98-7.317-.536-.3zM21.864 27.836l-9.132 5.191-.14-10.505 9.272 5.314zm18.963 7.635l-11.468 6.301V28.823l11.468 6.648zm-12.47-25.14l9.18 5.232-11.73 6.614-8.982-5.15 11.532-6.696zm-16.068 23.56l16.617 8.61.288-.54-16.618-8.609-.287.54zm26.494-17.738v17.912h.618V16.153h-.618z" stroke="#fff" stroke-width="1.5"/></symbol><symbol id="icon-logo-m"><path d="M48.363 15.776v1.665h-8.147V5.5h7.996v1.665H42.09v3.397h5.302v1.565H42.09v3.65h6.273zm4.779 1.834a6.899 6.899 0 01-2.108-.337 5.442 5.442 0 01-1.79-.992l.736-1.177a7.05 7.05 0 001.556.874c.513.19 1.037.286 1.572.286.547 0 .976-.106 1.288-.32.324-.213.485-.515.485-.908 0-.37-.178-.639-.535-.807-.357-.168-.914-.353-1.673-.555a20.952 20.952 0 01-1.405-.42 3.605 3.605 0 01-.953-.471 1.65 1.65 0 01-.536-.623c-.111-.235-.167-.521-.167-.857 0-.449.084-.847.25-1.195.18-.347.42-.639.72-.874a3.223 3.223 0 011.087-.555 4.654 4.654 0 011.339-.185c.658 0 1.271.1 1.84.303a4.783 4.783 0 011.522.874l-.786 1.11c-.814-.65-1.678-.975-2.593-.975-.468 0-.864.1-1.188.302-.312.191-.468.5-.468.925 0 .18.033.331.1.455.067.123.173.23.318.32.156.089.352.173.586.251.245.068.546.146.903.236a18.04 18.04 0 011.522.437c.435.146.792.32 1.07.522.28.19.486.42.62.69.134.257.2.571.2.941 0 .84-.317 1.508-.953 2.001-.624.483-1.478.724-2.56.724zm4.551-4.575c0-.617.106-1.2.318-1.75.212-.549.513-1.03.903-1.446.402-.415.881-.74 1.439-.975.557-.247 1.182-.37 1.873-.37.904 0 1.679.202 2.326.605.658.393 1.148.92 1.472 1.581l-1.79.572a2.244 2.244 0 00-.853-.858 2.273 2.273 0 00-1.188-.32 2.49 2.49 0 00-1.037.22 2.455 2.455 0 00-.82.622 2.829 2.829 0 00-.552.925c-.134.359-.2.757-.2 1.194 0 .426.066.824.2 1.194.145.359.335.673.569.942.245.269.524.482.836.639.324.146.664.219 1.02.219.224 0 .447-.028.67-.084a2.45 2.45 0 00.602-.27c.19-.112.351-.24.485-.386.145-.146.251-.303.318-.471l1.807.538c-.29.661-.775 1.205-1.456 1.631-.68.415-1.483.623-2.409.623-.68 0-1.299-.124-1.856-.37a4.524 4.524 0 01-1.439-.993 4.843 4.843 0 01-.92-1.463 4.819 4.819 0 01-.318-1.75zm12.238 4.575c-.424 0-.82-.068-1.187-.202a3.095 3.095 0 01-.937-.589 2.885 2.885 0 01-.62-.874 2.732 2.732 0 01-.217-1.094c0-.415.09-.79.268-1.127.178-.336.43-.627.753-.874a3.806 3.806 0 011.17-.572 5.32 5.32 0 011.506-.202c.413 0 .82.04 1.221.118.402.067.764.162 1.088.286v-.606c0-.65-.184-1.155-.552-1.513-.368-.37-.898-.555-1.59-.555-.468 0-.93.09-1.388.269a6.719 6.719 0 00-1.388.74l-.569-1.178c1.126-.762 2.297-1.143 3.513-1.143 1.204 0 2.141.308 2.81.925.67.617 1.004 1.502 1.004 2.657v3.179c0 .392.162.594.485.605v1.581a4.663 4.663 0 01-.468.068 4.045 4.045 0 01-.368.017c-.357 0-.636-.09-.837-.27a1.17 1.17 0 01-.351-.69l-.05-.554c-.39.516-.876.914-1.456 1.194a4.248 4.248 0 01-1.84.404zm.502-1.363a3.33 3.33 0 001.255-.235c.401-.168.713-.398.936-.69.235-.202.352-.415.352-.639v-1.16a5.505 5.505 0 00-1.004-.286 5.331 5.331 0 00-1.02-.101c-.658 0-1.2.146-1.623.437-.412.28-.619.656-.619 1.127 0 .437.162.807.485 1.11.324.292.736.437 1.238.437zm11.583 1.363c-.702 0-1.321-.169-1.856-.505a3.756 3.756 0 01-1.272-1.312v5.23h-1.84V8.646h1.623v1.581a3.857 3.857 0 011.288-1.261 3.504 3.504 0 011.807-.471 3.7 3.7 0 011.656.37 4.21 4.21 0 011.305.992c.367.415.652.897.853 1.447.212.549.317 1.126.317 1.732a5.58 5.58 0 01-.284 1.8 4.555 4.555 0 01-.803 1.446 4.053 4.053 0 01-1.238.975 3.414 3.414 0 01-1.556.354zm-.602-1.581c.39 0 .742-.084 1.054-.253.324-.168.597-.392.82-.672.234-.28.413-.6.535-.96.123-.358.184-.728.184-1.11 0-.403-.072-.784-.217-1.143a2.87 2.87 0 00-.57-.942 2.554 2.554 0 00-1.94-.874c-.234 0-.48.045-.736.134-.256.09-.496.213-.719.37a2.76 2.76 0 00-.585.555 1.77 1.77 0 00-.352.673v2.304c.112.27.257.522.435.757.179.236.374.437.586.606.223.168.463.302.72.403.256.101.518.152.785.152zm10.103 1.581c-.68 0-1.3-.118-1.857-.354a4.523 4.523 0 01-1.439-.992 4.63 4.63 0 01-.92-1.446 4.818 4.818 0 01-.317-1.75c0-.616.106-1.2.317-1.749.223-.56.53-1.048.92-1.463a4.192 4.192 0 011.439-.992c.558-.247 1.182-.37 1.874-.37.68 0 1.293.123 1.84.37a4.332 4.332 0 011.422.992c.39.404.685.88.886 1.43a4.595 4.595 0 01.268 2.371h-7.01c.034.393.123.746.268 1.06.157.314.352.588.586.824a2.601 2.601 0 001.79.706c.245 0 .485-.028.72-.084a2.98 2.98 0 00.668-.269c.2-.123.38-.269.535-.437.157-.168.28-.353.368-.555l1.573.454c-.301.661-.803 1.205-1.506 1.631-.691.415-1.5.623-2.425.623zm2.66-5.231a2.858 2.858 0 00-.285-1.026 2.428 2.428 0 00-.569-.79 2.5 2.5 0 00-.82-.522 2.662 2.662 0 00-.986-.185c-.346 0-.675.062-.987.185a2.546 2.546 0 00-.803.521 2.43 2.43 0 00-.569.791 3.09 3.09 0 00-.267 1.026h5.286zM40.216 34.26V22.32h5.17c.534 0 1.025.112 1.471.336.457.225.848.522 1.171.892.324.358.575.773.753 1.244.19.46.284.931.284 1.413 0 .404-.055.79-.167 1.16a4.13 4.13 0 01-.468 1.027 3.46 3.46 0 01-.736.824c-.29.224-.608.392-.954.504l2.794 4.541h-2.125l-2.576-4.154H42.09v4.154h-1.874zm1.874-5.819h3.278c.268 0 .508-.056.72-.168.223-.123.412-.286.569-.488a2.62 2.62 0 00.368-.723c.089-.27.133-.555.133-.858 0-.303-.055-.589-.167-.858a2.23 2.23 0 00-.418-.706 1.76 1.76 0 00-.602-.471 1.432 1.432 0 00-.703-.185H42.09v4.457zm12.637 5.988c-.69 0-1.315-.124-1.873-.37a4.379 4.379 0 01-1.405-.993 4.396 4.396 0 01-.904-1.446 4.907 4.907 0 01-.317-1.75c0-.605.106-1.182.317-1.732.212-.56.514-1.048.904-1.463a4.579 4.579 0 011.422-.992 4.54 4.54 0 011.856-.37c.68 0 1.294.123 1.84.37a4.334 4.334 0 011.422.992c.402.415.709.903.92 1.463.212.55.318 1.127.318 1.733 0 .605-.106 1.188-.317 1.749a4.263 4.263 0 01-.92 1.446 4.34 4.34 0 01-1.422.993c-.547.246-1.16.37-1.84.37zm-2.61-4.542c0 .427.068.819.202 1.178.133.359.317.672.552.942.234.258.507.465.82.622.323.146.668.219 1.036.219a2.37 2.37 0 001.02-.219 2.59 2.59 0 00.837-.64c.234-.268.418-.582.552-.941a3.34 3.34 0 00.201-1.177c0-.415-.067-.802-.2-1.16a2.993 2.993 0 00-.553-.96 2.408 2.408 0 00-.836-.622 2.24 2.24 0 00-1.02-.235c-.357 0-.697.078-1.02.235-.313.157-.586.37-.82.64a3.242 3.242 0 00-.57.958c-.133.359-.2.746-.2 1.16zm12.673 4.542c-.691 0-1.316-.124-1.873-.37a4.38 4.38 0 01-1.405-.993 4.396 4.396 0 01-.904-1.446 4.907 4.907 0 01-.317-1.75c0-.605.106-1.182.317-1.732.212-.56.513-1.048.904-1.463a4.58 4.58 0 011.422-.992 4.54 4.54 0 011.856-.37c.68 0 1.294.123 1.84.37a4.333 4.333 0 011.422.992c.402.415.709.903.92 1.463.212.55.318 1.127.318 1.733 0 .605-.106 1.188-.318 1.749a4.26 4.26 0 01-.92 1.446c-.39.415-.864.746-1.422.993-.546.246-1.16.37-1.84.37zm-2.61-4.542c0 .427.068.819.202 1.178.133.359.317.672.552.942.234.258.507.465.82.622.323.146.668.219 1.036.219s.709-.073 1.02-.219a2.59 2.59 0 00.837-.64c.234-.268.418-.582.552-.941a3.34 3.34 0 00.201-1.177c0-.415-.067-.802-.2-1.16a2.995 2.995 0 00-.553-.96 2.408 2.408 0 00-.836-.622 2.24 2.24 0 00-1.02-.235c-.357 0-.698.078-1.021.235-.312.157-.586.37-.82.64a3.237 3.237 0 00-.568.958 3.292 3.292 0 00-.201 1.16zm22.125 4.373h-1.84v-4.928c0-.818-.134-1.418-.402-1.8-.267-.38-.658-.571-1.17-.571-.525 0-1.005.196-1.44.589-.423.38-.73.88-.92 1.497v5.213h-1.84v-4.928c0-.83-.133-1.43-.401-1.8-.268-.38-.652-.571-1.154-.571-.524 0-1.004.19-1.439.572-.435.381-.747.88-.937 1.497v5.23h-1.84v-8.796h1.673v1.766c.346-.617.797-1.088 1.355-1.413.569-.336 1.216-.504 1.94-.504.725 0 1.294.19 1.707.572.424.38.686.857.786 1.43.368-.651.83-1.145 1.388-1.48.558-.349 1.194-.522 1.907-.522.513 0 .937.1 1.272.303.346.19.619.448.82.773.2.325.34.707.418 1.144.078.426.117.88.117 1.362v5.365z" fill="#fff"/><path fill="#fff" d="M32.99 15.786h15.456v1.647H32.99zm.005 6.499h11.478v1.642H32.995z"/><path fill-rule="evenodd" clip-rule="evenodd" d="M20.709 30.88L8.804 24.682l.206-.388 11.905 6.198-.206.388zm7.076-6.073V11.91h.443v12.897h-.443zm-.221-8.017l-6.695 3.937-.19-.404 6.658-3.91.227.377zm-.671-5.305l-6.578-3.767-8.261 4.821 6.434 3.708 8.405-4.762zm-6.58-4.275l-9.136 5.332 7.31 4.212 9.298-5.269-.384-.216-7.088-4.059z" fill="#fff"/><path d="M8.874 24.707l-.189-.11-.11-8.391-5.537-3.236m5.836 11.737l7.306-4.174m-7.306 4.174l7.306 3.815m.368-8.199v8.333l-.368-.134m.368-8.199l-13.51-7.781v-2.205l.332-.22 15.17-8.611 14.936 8.94v5.32h.482l.017-5.614L18.542 1 3.137 9.744l-.542.358v18.102L18.875 37l1.66-.902v.009l.325-.186.173-.094v-.004l12.886-7.57.02-5.396h-.462v5.141l-12.5 7.35v-4.443l9.136-5.098-9.435-5.484m-4.13 0l-.368.21m4.498-.21l-.088.051v15.193l-1.716.933-15.836-8.557V12.97m17.64 7.354l.191.404 6.695-3.937-.227-.377-6.659 3.91zM3.038 12.97v-.164m13.142 7.728v7.989M27.4 11.269L20.314 7.21l-9.136 5.332 7.31 4.212 9.298-5.269-.384-.216zm-11.736 9.053L9.121 24.06l-.1-7.564 6.643 3.826zm13.585 5.497l-8.216 4.537v-9.323l8.216 4.786zm-8.933-18.1l6.577 3.766-8.405 4.762-6.434-3.708 8.261-4.82zM8.803 24.681l11.905 6.198.206-.388L9.01 24.294l-.206.388zM27.785 11.91v12.897h.443V11.91h-.443z" stroke="#fff" stroke-width="1.175"/></symbol><symbol id="icon-mystics"><path d="M18.516 7.09a2.64 2.64 0 00-2.637 2.637 2.64 2.64 0 002.637 2.636 2.64 2.64 0 002.636-2.636 2.64 2.64 0 00-2.636-2.637zm0 3.515a.88.88 0 010-1.757.88.88 0 010 1.757zM11.484 7.09a2.64 2.64 0 00-2.636 2.637 2.64 2.64 0 002.636 2.636 2.64 2.64 0 002.637-2.636 2.64 2.64 0 00-2.637-2.637zm0 3.515a.88.88 0 010-1.757.88.88 0 010 1.757z" fill="#fff"/><path d="M27.363 14.121h-2.695V9.727C24.668 4.363 20.331 0 15 0 9.67 0 5.332 4.363 5.332 9.727v4.394H2.637A2.64 2.64 0 000 16.758v1.758a2.64 2.64 0 002.637 2.636 2.73 2.73 0 002.365-1.379l.227.113-1.64 9.079A.879.879 0 004.452 30h21.094a.879.879 0 00.865-1.035l-1.64-9.079.226-.113a2.728 2.728 0 002.365 1.38A2.64 2.64 0 0030 18.515v-1.758a2.64 2.64 0 00-2.637-2.637zm.88 4.395a.88.88 0 01-.88.879c-.5 0-.937-.411-.937-.88a.879.879 0 00-1.272-.785l-3.516 1.757a.879.879 0 10.786 1.573l.709-.355 1.362 7.537h-3.343v-2.695a.879.879 0 00-1.758 0v2.695H15.88V23.79a.879.879 0 00-1.758 0v4.453h-3.516v-2.695a.879.879 0 00-1.757 0v2.695H5.505l1.362-7.537.709.355a.879.879 0 00.786-1.573L4.846 17.73a.879.879 0 00-1.272.786c0 .468-.438.879-.937.879a.88.88 0 01-.88-.88v-1.757a.88.88 0 01.88-.88h5.332a.879.879 0 000-1.757h-.88V9.727c0-4.394 3.55-7.97 7.911-7.97 4.362 0 7.91 3.576 7.91 7.97v4.394h-.879a.879.879 0 000 1.758h5.332a.88.88 0 01.88.879v1.758z" fill="#fff"/><path d="M15 12.363A2.64 2.64 0 0012.363 15v1.758A2.64 2.64 0 0015 19.395a2.64 2.64 0 002.637-2.637V15A2.64 2.64 0 0015 12.363zm.879 4.395a.88.88 0 01-1.758 0V15a.88.88 0 011.758 0v1.758z" fill="#fff"/></symbol><symbol id="icon-scifi"><path d="M14 0c-.935 0-1.815.38-2.577.982a2.642 2.642 0 00-1.137-.268c-1.428 0-2.6 1.128-2.6 2.5 0 .766.368 1.46.94 1.92-.076.187-.15.374-.221.57a16.633 16.633 0 00-2.832-.291C3.302 5.398 1.389 6 .489 7.5c-.555.923-.611 2.031-.302 3.147.308 1.117.96 2.275 1.88 3.449.236.301.495.602.766.904-.271.303-.53.603-.766.904-.92 1.174-1.572 2.321-1.88 3.438-.294 1.062-.25 2.128.232 3.024a2.344 2.344 0 00-.163.848c0 1.373 1.173 2.5 2.6 2.5.911 0 1.718-.46 2.183-1.15 1.027.043 2.158-.05 3.366-.267.137.378.287.734.441 1.082.598 1.353 1.32 2.467 2.17 3.282C11.869 29.475 12.893 30 14 30s2.132-.525 2.983-1.34c.852-.814 1.573-1.928 2.17-3.28.155-.349.305-.705.442-1.083.397.072.782.134 1.16.178.258 1.119 1.295 1.965 2.531 1.965 1.427 0 2.6-1.128 2.6-2.5v-.011c.68-.333 1.253-.808 1.626-1.429.553-.923.61-2.042.301-3.158-.308-1.117-.96-2.264-1.88-3.438a18.038 18.038 0 00-.766-.904c.271-.302.53-.603.766-.904.92-1.174 1.572-2.332 1.88-3.449.309-1.116.253-2.224-.301-3.147-.9-1.499-2.814-2.102-5.085-2.087-.88.006-1.83.109-2.832.29a17.284 17.284 0 00-.441-1.094c-.598-1.352-1.32-2.466-2.17-3.28C16.131.512 15.107 0 14 0zm0 1.429c.636 0 1.279.284 1.938.915.66.63 1.301 1.602 1.846 2.835.117.265.229.548.337.837-1.32.33-2.703.801-4.121 1.395a29.027 29.027 0 00-4.12-1.395c.04-.108.085-.208.127-.313.09.01.185.011.279.011 1.427 0 2.6-1.128 2.6-2.5 0-.456-.123-.88-.349-1.25.496-.358.981-.535 1.463-.535zm-3.714.714c.624 0 1.114.471 1.114 1.071s-.49 1.072-1.114 1.072c-.625 0-1.115-.472-1.115-1.072 0-.6.49-1.071 1.115-1.071zM5.573 6.84c.728.005 1.538.084 2.403.235a26.364 26.364 0 00-.813 4.13 28.157 28.157 0 00-3.308 2.734 16.361 16.361 0 01-.592-.703c-.839-1.07-1.398-2.093-1.637-2.958-.239-.865-.178-1.536.14-2.065.516-.86 1.813-1.386 3.807-1.373zm16.854 0c1.994-.012 3.29.513 3.808 1.373.317.53.378 1.2.139 2.065-.24.865-.798 1.888-1.637 2.958-.18.23-.385.468-.592.703a28.2 28.2 0 00-3.32-2.735 26.485 26.485 0 00-.8-4.13c.865-.15 1.674-.229 2.402-.234zM9.438 7.4c.873.217 1.788.492 2.728.837-.565.276-1.128.567-1.695.881-.57.317-1.113.658-1.648.994.16-.964.373-1.87.615-2.712zm9.135 0c.241.837.445 1.743.604 2.7a36.248 36.248 0 00-1.648-.982 36.496 36.496 0 00-1.695-.881c.944-.347 1.864-.62 2.74-.837zM14 8.984c.92.405 1.855.856 2.786 1.373.932.517 1.81 1.066 2.635 1.63.095.972.15 1.975.15 3.013 0 1.034-.056 2.045-.15 3.013a33.775 33.775 0 01-5.433 3.003 34.367 34.367 0 01-2.774-1.384 33.783 33.783 0 01-2.635-1.619A31.18 31.18 0 018.43 15c0-1.033.056-2.034.15-3.002a33.43 33.43 0 012.635-1.64A33.755 33.755 0 0114 8.983zm0 3.516c-1.427 0-2.6 1.128-2.6 2.5s1.173 2.5 2.6 2.5 2.6-1.128 2.6-2.5-1.173-2.5-2.6-2.5zm-7 .647A34.06 34.06 0 006.942 15c0 .627.025 1.246.059 1.853A25.61 25.61 0 014.865 15 25.6 25.6 0 017 13.147zm14 0A25.6 25.6 0 0123.135 15 25.612 25.612 0 0121 16.853c.034-.607.059-1.226.059-1.853 0-.631-.025-1.242-.058-1.853zM3.855 16.071c.959.931 2.077 1.842 3.32 2.724.173 1.47.43 2.859.789 4.118-.912.16-1.75.236-2.507.234-.04-1.34-1.198-2.433-2.6-2.433-.488 0-.944.14-1.335.369-.065-.395-.04-.852.104-1.373.24-.865.798-1.877 1.637-2.947.18-.23.386-.457.592-.692zm20.29 0c.206.235.411.462.592.692.839 1.07 1.398 2.082 1.637 2.947.239.864.178 1.546-.14 2.076-.18.3-.44.554-.8.759a2.65 2.65 0 00-2.148-1.105c-1.102 0-2.05.68-2.426 1.618-.273-.034-.549-.084-.836-.134a26.36 26.36 0 00.801-4.13c1.243-.88 2.361-1.792 3.32-2.723zM8.823 19.9c.533.333 1.08.655 1.648.97.566.315 1.13.617 1.695.893-.944.346-1.864.62-2.74.837a23.953 23.953 0 01-.603-2.7zm10.354 0a24.03 24.03 0 01-.604 2.712 26.666 26.666 0 01-2.739-.849 37.177 37.177 0 001.695-.893 36.576 36.576 0 001.648-.97zm-16.32 2.243c.624 0 1.114.471 1.114 1.071s-.49 1.072-1.114 1.072c-.625 0-1.115-.472-1.115-1.072 0-.6.49-1.071 1.115-1.071zm11.155.446a29.128 29.128 0 004.12 1.384c-.109.294-.229.579-.348.848-.545 1.233-1.186 2.204-1.845 2.835-.66.631-1.303.915-1.939.915-.636 0-1.279-.284-1.938-.915-.66-.63-1.301-1.602-1.846-2.835a15.587 15.587 0 01-.337-.837 28.882 28.882 0 004.133-1.395zm9.274.28c.624 0 1.115.47 1.115 1.07 0 .6-.49 1.072-1.115 1.072-.624 0-1.114-.471-1.114-1.071s.49-1.072 1.114-1.072z" fill="#fff"/></symbol></svg>