<svg width="36" height="36" fill="none" xmlns="http://www.w3.org/2000/svg"><path fill-rule="evenodd" clip-rule="evenodd" d="M18 36c9.941 0 18-8.059 18-18S27.941 0 18 0 0 8.059 0 18s8.059 18 18 18zm7.597-15.71c-.19-.174-.38-.347-.567-.523-.638-.6-.678-.947-.165-1.637.297-.402.607-.796.916-1.19.272-.346.544-.691.808-1.043l.06-.08c.507-.676 1.016-1.355 1.282-2.164.176-.535.02-.771-.549-.865a1.847 1.847 0 00-.298-.017l-3.377-.003c-.417-.008-.647.167-.794.523-.198.48-.402.96-.64 1.423-.536 1.052-1.135 2.068-1.975 2.927l-.037.037c-.176.182-.374.386-.664.294-.388-.137-.501-.753-.495-.96l-.003-3.757c-.076-.536-.198-.775-.75-.88h-3.51c-.468 0-.703.175-.952.457-.144.163-.188.27.109.324.581.106.91.47.996 1.031.14.9.13 1.802.05 2.705a2.474 2.474 0 01-.179.772c-.17.387-.443.466-.803.228-.326-.215-.554-.52-.779-.825a17.953 17.953 0 01-2.06-3.68c-.159-.374-.431-.602-.843-.608a87.505 87.505 0 00-3.04.002c-.61.01-.791.296-.543.829 1.103 2.365 2.331 4.666 3.934 6.76.824 1.074 1.77 2.024 2.99 2.697 1.383.763 2.873.992 4.443.92.734-.032.955-.217.988-.922.024-.483.08-.962.327-1.396.242-.426.61-.507 1.034-.242.212.133.39.3.559.479.133.14.266.283.398.426.276.298.552.596.843.881.537.528 1.176.839 1.977.775l3.105.001c.5-.032.76-.623.472-1.16-.203-.377-.468-.713-.748-1.039-.466-.538-.993-1.02-1.52-1.5z" fill="#C6C4C2"/></svg>